<?xml version="1.0" encoding="utf-8"?>
<!-- Generator: Adobe Illustrator 15.0.0, SVG Export Plug-In . SVG Version: 6.00 Build 0)  -->
<!DOCTYPE svg PUBLIC "-//W3C//DTD SVG 1.1//EN" "http://www.w3.org/Graphics/SVG/1.1/DTD/svg11.dtd">
<svg version="1.1" id="Layer_1" xmlns="http://www.w3.org/2000/svg" xmlns:xlink="http://www.w3.org/1999/xlink" x="0px" y="0px"
	 width="228px" height="113.999px" viewBox="0 0 228 113.999" enable-background="new 0 0 228 113.999" xml:space="preserve">
<g>
	<defs>
		<rect id="SVGID_1_" width="228" height="113.999"/>
	</defs>
	<clipPath id="SVGID_2_">
		<use xlink:href="#SVGID_1_"  overflow="visible"/>
	</clipPath>
	<path clip-path="url(#SVGID_2_)" fill="#FFFFFF" d="M152.248,70.735l0.002-9.474V29.389c0-12.981-10.563-23.542-23.542-23.542
		h-26.147c-12.981,0-23.542,10.561-23.542,23.542v17.804c0,12.981,10.561,23.542,23.542,23.542h26.905h9.212H152.248z"/>
	<path clip-path="url(#SVGID_2_)" fill="#FFFFFF" d="M24.406,83.365c0-2.842-1.959-4.677-4.992-4.677h-4.992v15.24h2.458V88.02
		h1.936l4.239,5.909h2.911L21.434,87.7C23.294,87.063,24.406,85.484,24.406,83.365 M16.88,80.844h2.534
		c2.205,0,2.534,1.579,2.534,2.521c0,1.138-0.44,2.498-2.534,2.498H16.88V80.844z"/>
	<polygon clip-path="url(#SVGID_2_)" fill="#FFFFFF" points="30.423,93.929 39.668,93.929 39.668,91.772 32.881,91.772 
		32.881,87.03 38.478,87.03 38.478,84.874 32.881,84.874 32.881,80.844 39.668,80.844 39.668,78.688 30.423,78.688 	"/>
	<path clip-path="url(#SVGID_2_)" fill="#FFFFFF" d="M49.927,84.839c-2.238-0.622-2.546-1.52-2.546-2.394
		c0-1.189,0.894-1.9,2.391-1.9c0.754,0,1.79,0.346,2.64,0.877l1.025,0.646l0.533-2.209l-0.4-0.278
		c-0.792-0.55-2.262-1.19-3.798-1.19c-2.779,0-4.873,1.744-4.873,4.056c0,2.155,1.514,3.796,4.147,4.505
		c2.621,0.732,3.117,1.551,3.117,2.807c0,1.361-1.081,2.313-2.63,2.313c-1.743,0-3.017-0.892-3.483-1.276l-1.126-0.926l-0.462,2.452
		l0.288,0.262c1.138,1.03,2.926,1.646,4.783,1.646c2.54,0,5.112-1.56,5.112-4.539C54.645,87.313,53.054,85.683,49.927,84.839"/>
	<path clip-path="url(#SVGID_2_)" fill="#FFFFFF" d="M67.885,78.367c-4.63,0-7.992,3.339-7.992,7.94
		c0,4.604,3.362,7.942,7.992,7.942c4.632,0,7.993-3.339,7.993-7.942C75.878,81.706,72.517,78.367,67.885,78.367 M67.885,92.071
		c-3.31,0-5.534-2.316-5.534-5.764c0-3.445,2.224-5.762,5.534-5.762c3.26,0,5.536,2.37,5.536,5.762
		C73.421,89.701,71.146,92.071,67.885,92.071"/>
	<path clip-path="url(#SVGID_2_)" fill="#FFFFFF" d="M91.756,86.836c0,2.389-0.7,5.234-4.035,5.234s-4.035-2.846-4.035-5.234v-8.147
		h-2.457v8.126c0,4.724,2.366,7.435,6.492,7.435c4.127,0,6.493-2.711,6.493-7.435v-8.126h-2.458V86.836z"/>
	<path clip-path="url(#SVGID_2_)" fill="#FFFFFF" d="M110.238,83.365c0-2.842-1.959-4.677-4.991-4.677h-4.993v15.24h2.458V88.02
		h1.936l4.239,5.909h2.911l-4.532-6.229C109.127,87.063,110.238,85.484,110.238,83.365 M102.712,80.844h2.535
		c2.204,0,2.533,1.579,2.533,2.521c0,1.138-0.44,2.498-2.533,2.498h-2.535V80.844z"/>
	<path clip-path="url(#SVGID_2_)" fill="#FFFFFF" d="M123.247,78.39c-4.59,0-7.921,3.341-7.921,7.942
		c0,4.574,3.331,7.896,7.921,7.896c1.803,0,3.78-0.567,5.038-1.445l0.311-0.215v-2.66l-1.341,0.944
		c-1.127,0.794-2.476,1.195-4.008,1.195c-3.268,0-5.463-2.297-5.463-5.715c0-3.448,2.195-5.763,5.463-5.763
		c1.51,0,2.858,0.41,4.008,1.22l1.341,0.945v-2.66l-0.311-0.216C127.007,78.965,125.029,78.39,123.247,78.39"/>
	<polygon clip-path="url(#SVGID_2_)" fill="#FFFFFF" points="134.065,93.929 143.311,93.929 143.311,91.772 136.523,91.772 
		136.523,87.03 142.121,87.03 142.121,84.874 136.523,84.874 136.523,80.844 143.311,80.844 143.311,78.688 134.065,78.688 	"/>
	<path clip-path="url(#SVGID_2_)" fill="#FFFFFF" d="M153.866,78.688h-4.991v15.24h2.457v-5.68h2.534
		c3.033,0,4.992-1.872,4.992-4.768C158.858,81.096,157.315,78.688,153.866,78.688 M153.866,86.093h-2.534v-5.248h2.534
		c2.205,0,2.534,1.651,2.534,2.637C156.4,84.455,156.071,86.093,153.866,86.093"/>
	<path clip-path="url(#SVGID_2_)" fill="#FFFFFF" d="M171.295,78.367c-4.631,0-7.992,3.339-7.992,7.94
		c0,4.604,3.361,7.942,7.992,7.942c4.632,0,7.993-3.339,7.993-7.942C179.288,81.706,175.927,78.367,171.295,78.367 M171.295,92.071
		c-3.31,0-5.534-2.316-5.534-5.764c0-3.445,2.225-5.762,5.534-5.762c3.26,0,5.535,2.37,5.535,5.762
		C176.83,89.701,174.555,92.071,171.295,92.071"/>
	<path clip-path="url(#SVGID_2_)" fill="#FFFFFF" d="M191.965,78.367c-4.631,0-7.992,3.339-7.992,7.94
		c0,4.604,3.361,7.942,7.992,7.942s7.992-3.339,7.992-7.942C199.957,81.706,196.596,78.367,191.965,78.367 M191.965,92.071
		c-3.312,0-5.535-2.316-5.535-5.764c0-3.445,2.224-5.762,5.535-5.762c3.259,0,5.535,2.37,5.535,5.762
		C197.5,89.701,195.224,92.071,191.965,92.071"/>
	<polygon clip-path="url(#SVGID_2_)" fill="#FFFFFF" points="207.79,91.772 207.79,78.688 205.332,78.688 205.332,93.928 
		214.577,93.928 214.577,91.772 	"/>
	<path clip-path="url(#SVGID_2_)" fill="#FFFFFF" d="M63.803,104.694c0.43-0.357,0.678-0.928,0.678-1.585
		c0-1.324-0.907-2.147-2.367-2.147h-2.403v8.021h2.603c1.883,0,2.555-1.211,2.555-2.343
		C64.869,105.767,64.475,105.061,63.803,104.694 M60.788,105.295h1.526c0.98,0,1.478,0.452,1.478,1.345
		c0,0.612-0.256,1.341-1.478,1.341h-1.526V105.295z M62.114,104.293h-1.326v-2.329h1.326c0.878,0,1.288,0.363,1.288,1.146
		C63.402,103.918,62.992,104.293,62.114,104.293"/>
	<path clip-path="url(#SVGID_2_)" fill="#FFFFFF" d="M70.694,106.441c0,0.934-0.971,1.687-1.777,1.687
		c-0.617,0-1.275-0.132-1.275-1.724v-3.37h-1.066v3.421c0,2.213,1.233,2.677,2.266,2.677c0.678,0,1.37-0.286,1.887-0.768v0.619
		h1.029v-5.949h-1.064V106.441z"/>
	<path clip-path="url(#SVGID_2_)" fill="#FFFFFF" d="M75.883,105.441c-0.923-0.255-1.09-0.491-1.09-0.863
		c0-0.177,0-0.715,1.013-0.715c0.368,0,0.819,0.117,1.178,0.307l0.379,0.199l0.242-0.972l-0.211-0.112
		c-0.284-0.153-0.936-0.411-1.588-0.411c-1.242,0-2.077,0.694-2.077,1.728c0,0.597,0.304,1.391,1.749,1.79
		c1.154,0.318,1.339,0.523,1.339,0.889c0,0.216,0,0.875-1.137,0.875c-0.579,0-1.173-0.214-1.537-0.412l-0.394-0.222l-0.207,0.993
		l0.192,0.113c0.147,0.085,0.938,0.515,1.922,0.515c1.354,0,2.229-0.751,2.229-1.914C77.885,106.392,77.231,105.807,75.883,105.441"
		/>
	<rect x="79.68" y="103.034" clip-path="url(#SVGID_2_)" fill="#FFFFFF" width="1.066" height="5.949"/>
	<rect x="79.68" y="100.962" clip-path="url(#SVGID_2_)" fill="#FFFFFF" width="1.066" height="1.286"/>
	<path clip-path="url(#SVGID_2_)" fill="#FFFFFF" d="M85.833,102.886c-0.678,0-1.37,0.287-1.887,0.77v-0.622h-1.029v5.95h1.066
		v-3.406c0-0.909,0.975-1.688,1.775-1.688c0.617,0,1.275,0.134,1.275,1.726v3.369h1.066v-3.419
		C88.099,103.352,86.866,102.886,85.833,102.886"/>
	<path clip-path="url(#SVGID_2_)" fill="#FFFFFF" d="M95.171,105.705l0.003-0.001c0.028-0.16,0.041-0.405,0.041-0.522
		c0-1.314-1.07-2.308-2.491-2.308c-1.365,0-2.779,1.154-2.779,3.086c0,1.86,1.216,3.159,2.953,3.159c0.859,0,1.628-0.243,2.168-0.68
		l0.112-0.094v-1.18l-0.535,0.433c-0.342,0.27-0.945,0.542-1.518,0.542c-0.641,0-1.145-0.174-1.504-0.521
		c-0.396-0.377-0.61-0.961-0.61-1.66h4.114L95.171,105.705z M91.154,105.022c0.383-1.094,1.315-1.183,1.605-1.183
		c0.778,0,1.368,0.503,1.403,1.183H91.154z"/>
	<path clip-path="url(#SVGID_2_)" fill="#FFFFFF" d="M99.054,105.441c-0.923-0.255-1.092-0.49-1.092-0.863
		c0-0.177,0-0.715,1.013-0.715c0.37,0,0.821,0.117,1.18,0.307l0.377,0.2l0.242-0.97l-0.211-0.115
		c-0.077-0.043-0.789-0.411-1.588-0.411c-1.242,0-2.077,0.694-2.077,1.728c0,0.597,0.304,1.391,1.749,1.79
		c1.154,0.318,1.341,0.523,1.341,0.889c0,0.216,0,0.875-1.139,0.875c-0.579,0-1.173-0.214-1.537-0.412l-0.394-0.222l-0.21,0.996
		l0.194,0.11c0.148,0.085,0.927,0.515,1.923,0.515c1.354,0,2.229-0.751,2.229-1.914C101.054,106.392,100.4,105.807,99.054,105.441"
		/>
	<path clip-path="url(#SVGID_2_)" fill="#FFFFFF" d="M104.806,105.441c-0.923-0.255-1.092-0.49-1.092-0.863
		c0-0.177,0-0.715,1.013-0.715c0.37,0,0.821,0.117,1.181,0.307l0.376,0.2l0.242-0.969l-0.211-0.118
		c-0.079-0.042-0.793-0.409-1.588-0.409c-1.244,0-2.079,0.694-2.079,1.728c0,0.596,0.304,1.39,1.751,1.79
		c1.156,0.318,1.341,0.523,1.341,0.889c0,0.216,0,0.875-1.139,0.875c-0.577,0-1.173-0.214-1.539-0.412l-0.394-0.222l-0.21,0.996
		l0.197,0.112c0.211,0.12,0.975,0.513,1.922,0.513c1.354,0,2.229-0.751,2.229-1.914C106.806,106.39,106.152,105.805,104.806,105.441
		"/>
	<polygon clip-path="url(#SVGID_2_)" fill="#FFFFFF" points="112.178,108.983 116.822,108.983 116.822,107.979 113.255,107.979 
		113.255,105.283 116.194,105.283 116.194,104.282 113.255,104.282 113.255,101.963 116.822,101.963 116.822,100.962 
		112.178,100.962 	"/>
	<polygon clip-path="url(#SVGID_2_)" fill="#FFFFFF" points="123.612,103.034 122.366,103.034 120.822,105.127 119.273,103.034 
		118.016,103.034 120.161,105.947 117.917,108.982 119.177,108.982 120.807,106.75 122.454,108.982 123.707,108.982 121.48,105.925 
			"/>
	<path clip-path="url(#SVGID_2_)" fill="#FFFFFF" d="M127.508,102.886c-1.746,0-3.015,1.319-3.015,3.136
		c0,1.802,1.269,3.11,3.015,3.11c0.78,0,1.405-0.17,1.907-0.516l0.137-0.092v-1.184l-0.523,0.37
		c-0.364,0.261-0.926,0.431-1.432,0.431c-1.2,0-2.037-0.872-2.037-2.12c0-1.264,0.837-2.146,2.037-2.146
		c0.506,0,1.041,0.165,1.433,0.444l0.522,0.365v-1.179l-0.134-0.091C128.909,103.061,128.283,102.886,127.508,102.886"/>
	<path clip-path="url(#SVGID_2_)" fill="#FFFFFF" d="M136.309,105.705l0.003-0.001c0.028-0.16,0.041-0.405,0.041-0.522
		c0-1.314-1.07-2.308-2.49-2.308c-1.366,0-2.779,1.154-2.779,3.086c0,1.86,1.216,3.159,2.953,3.159c0.858,0,1.627-0.243,2.167-0.68
		l0.112-0.094v-1.18l-0.535,0.433c-0.342,0.27-0.944,0.542-1.518,0.542c-0.641,0-1.146-0.174-1.504-0.521
		c-0.396-0.377-0.61-0.961-0.61-1.66h4.114L136.309,105.705z M132.292,105.022c0.383-1.094,1.314-1.183,1.605-1.183
		c0.777,0,1.367,0.503,1.402,1.183H132.292z"/>
	<rect x="138.233" y="100.962" clip-path="url(#SVGID_2_)" fill="#FFFFFF" width="1.067" height="8.021"/>
	<rect x="141.46" y="100.962" clip-path="url(#SVGID_2_)" fill="#FFFFFF" width="1.068" height="8.021"/>
	<path clip-path="url(#SVGID_2_)" fill="#FFFFFF" d="M149.613,105.705l0.002-0.001c0.029-0.161,0.04-0.406,0.04-0.522
		c0-1.314-1.07-2.308-2.491-2.308c-1.365,0-2.777,1.154-2.777,3.086c0,1.86,1.216,3.159,2.954,3.159c0.856,0,1.625-0.243,2.167-0.68
		l0.112-0.094v-1.18l-0.537,0.433c-0.34,0.27-0.94,0.542-1.516,0.542c-0.641,0-1.146-0.174-1.504-0.521
		c-0.395-0.377-0.61-0.961-0.612-1.66h4.116L149.613,105.705z M145.597,105.022c0.385-1.094,1.314-1.183,1.605-1.183
		c0.774,0,1.365,0.503,1.4,1.183H145.597z"/>
	<path clip-path="url(#SVGID_2_)" fill="#FFFFFF" d="M154.47,102.886c-0.681,0-1.372,0.287-1.89,0.77v-0.622h-1.028v5.95h1.064
		v-3.406c0-0.935,0.973-1.688,1.778-1.688c0.617,0,1.275,0.134,1.275,1.726v3.369h1.063v-3.419
		C156.733,103.352,155.502,102.886,154.47,102.886"/>
	<path clip-path="url(#SVGID_2_)" fill="#FFFFFF" d="M161.597,102.886c-1.749,0-3.018,1.319-3.018,3.136
		c0,1.802,1.269,3.11,3.018,3.11c0.779,0,1.402-0.17,1.902-0.516l0.137-0.092v-1.186l-0.521,0.372
		c-0.364,0.261-0.926,0.431-1.43,0.431c-1.202,0-2.042-0.872-2.042-2.12c0-1.264,0.84-2.146,2.042-2.146
		c0.495,0,1.044,0.17,1.43,0.442l0.521,0.371v-1.183l-0.135-0.091C162.993,103.061,162.369,102.886,161.597,102.886"/>
	<path clip-path="url(#SVGID_2_)" fill="#FFFFFF" d="M168.347,108.141c-0.639,0-1.144-0.174-1.502-0.517
		c-0.396-0.381-0.61-0.967-0.61-1.664h4.105l0.053-0.251c0.033-0.167,0.045-0.413,0.045-0.527c0-1.314-1.069-2.308-2.489-2.308
		c-1.366,0-2.779,1.154-2.779,3.086c0,1.86,1.216,3.159,2.955,3.159c0.861,0,1.628-0.243,2.163-0.68l0.112-0.094v-1.18l-0.535,0.433
		C169.524,107.868,168.922,108.141,168.347,108.141 M166.375,105.022c0.386-1.094,1.319-1.183,1.61-1.183
		c0.775,0,1.363,0.503,1.398,1.183H166.375z"/>
	<path clip-path="url(#SVGID_2_)" fill="#FFFFFF" d="M88.231,29.389v17.804c0,7.914,6.416,14.33,14.33,14.33h26.904v-9.781h-23.265
		c-4.523,0-8.189-3.666-8.189-8.188V33.029c0-4.523,3.666-8.189,8.189-8.189h18.867c4.522,0,8.188,3.666,8.188,8.189v28.233h9.781
		V29.389c0-7.914-6.416-14.33-14.33-14.33h-26.146C94.647,15.059,88.231,21.475,88.231,29.389"/>
	<path clip-path="url(#SVGID_2_)" d="M128.708,15.059c7.914,0,14.33,6.416,14.33,14.33v31.873h-9.781V33.029
		c0-4.523-3.666-8.189-8.188-8.189h-18.867c-4.522,0-8.188,3.666-8.188,8.189v10.525c0,4.522,3.666,8.188,8.188,8.188h23.265v9.781
		h-26.904c-7.915,0-14.331-6.417-14.331-14.33V29.389c0-7.914,6.416-14.33,14.331-14.33H128.708"/>
</g>
</svg>
